<svg width="700" height="800" viewBox="0 0 700 800" fill="none" xmlns="http://www.w3.org/2000/svg">
<g clip-path="url(#clip0_73_45)">
<mask id="mask0_73_45" style="mask-type:luminance" maskUnits="userSpaceOnUse" x="-349" y="-1" width="1139" height="801">
<path d="M789.616 -1H-349V800H789.616V-1Z" fill="white"/>
</mask>
<g mask="url(#mask0_73_45)">
<path d="M791.026 -2.79443H-350.024V861.068H791.026V-2.79443Z" fill="url(#paint0_linear_73_45)"/>
<path d="M128.483 356.326C128.486 356.613 128.404 356.894 128.247 357.133C128.09 357.373 127.865 357.56 127.6 357.671C127.336 357.782 127.045 357.812 126.764 357.757C126.483 357.702 126.224 357.564 126.022 357.362C125.819 357.159 125.682 356.901 125.627 356.62C125.571 356.338 125.601 356.047 125.712 355.783C125.824 355.519 126.011 355.294 126.25 355.137C126.49 354.98 126.771 354.897 127.057 354.9C127.435 354.9 127.798 355.051 128.065 355.318C128.333 355.585 128.483 355.948 128.483 356.326Z" fill="url(#paint1_linear_73_45)"/>
<path d="M21.0068 118.156C21.7942 118.156 22.4326 117.518 22.4326 116.73C22.4326 115.943 21.7942 115.305 21.0068 115.305C20.2194 115.305 19.5811 115.943 19.5811 116.73C19.5811 117.518 20.2194 118.156 21.0068 118.156Z" fill="url(#paint2_linear_73_45)"/>
<path d="M156.726 155.467C156.356 155.509 155.984 155.408 155.686 155.185C155.388 154.962 155.187 154.633 155.124 154.266C155.078 153.982 155.118 153.691 155.239 153.43C155.36 153.17 155.556 152.951 155.802 152.802C156.048 152.654 156.332 152.582 156.619 152.597C156.906 152.611 157.182 152.711 157.412 152.883C157.642 153.055 157.815 153.293 157.909 153.564C158.004 153.836 158.014 154.129 157.941 154.407C157.867 154.684 157.712 154.934 157.495 155.123C157.279 155.312 157.011 155.432 156.726 155.467Z" fill="url(#paint3_linear_73_45)"/>
<path d="M70.3158 59.219C70.0361 59.2609 69.7502 59.2187 69.4946 59.0977C69.2389 58.9767 69.0251 58.7825 68.8802 58.5396C68.7352 58.2967 68.6658 58.0162 68.6807 57.7338C68.6956 57.4514 68.7942 57.1797 68.9639 56.9535C69.1335 56.7272 69.3667 56.5566 69.6337 56.4632C69.9006 56.3698 70.1893 56.3579 70.4631 56.429C70.7368 56.5001 70.9831 56.6511 71.1709 56.8626C71.3586 57.0742 71.4792 57.3367 71.5172 57.617C71.5677 57.9883 71.4699 58.3646 71.2451 58.6644C71.0202 58.9642 70.6864 59.1635 70.3158 59.219Z" fill="url(#paint4_linear_73_45)"/>
<path d="M258.852 253.718C258.572 253.76 258.286 253.717 258.031 253.596C257.775 253.475 257.561 253.281 257.416 253.038C257.271 252.795 257.202 252.515 257.217 252.232C257.232 251.95 257.33 251.678 257.5 251.452C257.67 251.226 257.903 251.055 258.17 250.962C258.437 250.868 258.725 250.857 258.999 250.928C259.273 250.999 259.519 251.15 259.707 251.361C259.895 251.573 260.015 251.835 260.053 252.116C260.104 252.487 260.006 252.863 259.781 253.163C259.556 253.463 259.223 253.662 258.852 253.718Z" fill="url(#paint5_linear_73_45)"/>
<path d="M29.0652 342.036C28.8699 342.087 28.6661 342.096 28.467 342.063C28.2678 342.03 28.0778 341.956 27.9093 341.845C27.7408 341.734 27.5974 341.589 27.4886 341.419C27.3797 341.249 27.3077 341.058 27.2772 340.858C27.2468 340.659 27.2586 340.455 27.3118 340.261C27.3651 340.066 27.4587 339.885 27.5864 339.728C27.7142 339.572 27.8733 339.444 28.0536 339.354C28.2338 339.263 28.4311 339.211 28.6327 339.201C28.989 339.184 29.3391 339.299 29.6152 339.525C29.8914 339.751 30.074 340.071 30.1278 340.424C30.1816 340.776 30.1028 341.136 29.9065 341.434C29.7102 341.732 29.4105 341.947 29.0652 342.036Z" fill="url(#paint6_linear_73_45)"/>
<path d="M45.0852 265.989C45.1226 265.635 45.2899 265.307 45.5546 265.069C45.8193 264.831 46.1628 264.699 46.5189 264.699C46.875 264.699 47.2185 264.831 47.4832 265.069C47.748 265.307 47.9152 265.635 47.9527 265.989C47.974 266.19 47.9527 266.394 47.8904 266.586C47.828 266.778 47.7259 266.955 47.5907 267.105C47.4555 267.256 47.2902 267.376 47.1056 267.458C46.9209 267.54 46.7211 267.583 46.5189 267.583C46.3168 267.583 46.1169 267.54 45.9322 267.458C45.7476 267.376 45.5823 267.256 45.4471 267.105C45.3119 266.955 45.2098 266.778 45.1475 266.586C45.0851 266.394 45.0639 266.19 45.0852 265.989Z" fill="url(#paint7_linear_73_45)"/>
<path d="M184.536 114.76C184.536 114.475 184.621 114.196 184.779 113.959C184.938 113.722 185.163 113.537 185.426 113.428C185.69 113.319 185.98 113.291 186.259 113.346C186.539 113.402 186.796 113.539 186.998 113.741C187.199 113.942 187.336 114.199 187.392 114.479C187.448 114.759 187.419 115.049 187.31 115.312C187.201 115.576 187.016 115.801 186.779 115.959C186.542 116.118 186.263 116.202 185.978 116.202C185.788 116.204 185.6 116.168 185.424 116.097C185.248 116.025 185.088 115.919 184.954 115.785C184.819 115.65 184.713 115.491 184.642 115.315C184.57 115.139 184.534 114.95 184.536 114.76Z" fill="url(#paint8_linear_73_45)"/>
<path d="M170.039 242.968C170.322 242.919 170.614 242.957 170.877 243.075C171.139 243.194 171.36 243.388 171.511 243.633C171.662 243.878 171.736 244.163 171.724 244.45C171.712 244.738 171.614 245.015 171.442 245.247C171.271 245.478 171.035 245.653 170.763 245.749C170.492 245.845 170.198 245.857 169.919 245.784C169.641 245.711 169.39 245.557 169.2 245.341C169.01 245.124 168.889 244.856 168.853 244.57C168.802 244.201 168.898 243.827 169.12 243.528C169.341 243.228 169.671 243.028 170.039 242.968Z" fill="url(#paint9_linear_73_45)"/>
<path d="M95.1946 218.986C95.405 218.705 95.6686 218.469 95.9705 218.29C96.2723 218.111 96.6064 217.993 96.9538 217.943C97.3011 217.893 97.6549 217.912 97.9948 217.999C98.3348 218.086 98.6543 218.239 98.9352 218.449C99.216 218.66 99.4527 218.923 99.6317 219.225C99.8107 219.527 99.9284 219.861 99.9782 220.209C100.028 220.556 100.009 220.91 99.9221 221.25C99.8352 221.59 99.6823 221.909 99.4719 222.19C99.047 222.757 98.4142 223.133 97.7127 223.233C97.0112 223.334 96.2985 223.152 95.7313 222.727C95.1641 222.302 94.7889 221.669 94.6882 220.968C94.5876 220.266 94.7697 219.553 95.1946 218.986Z" fill="url(#paint10_linear_73_45)"/>
<path d="M-15.7904 557.937C-15.7113 557.596 -15.5654 557.275 -15.3611 556.991C-15.1568 556.707 -14.8981 556.466 -14.6001 556.283C-14.302 556.099 -13.9706 555.977 -13.6249 555.923C-13.2792 555.869 -12.9263 555.884 -12.5864 555.967C-11.1607 556.303 212.058 462.634 211.689 464.06C211.321 465.486 -12.3942 561.462 -13.8199 561.125C-14.5027 560.962 -15.093 560.535 -15.4621 559.937C-15.8313 559.34 -15.9493 558.621 -15.7904 557.937Z" fill="url(#paint11_linear_73_45)"/>
<path d="M525.836 369.815C525.87 369.663 525.934 369.518 526.024 369.391C526.115 369.264 526.23 369.156 526.363 369.074C526.496 368.991 526.644 368.937 526.798 368.913C526.953 368.889 527.11 368.896 527.262 368.934C527.903 369.078 628.298 326.946 628.186 327.586C628.074 328.227 527.39 371.401 526.749 371.257C526.594 371.223 526.447 371.158 526.318 371.067C526.188 370.976 526.077 370.86 525.992 370.726C525.907 370.592 525.85 370.443 525.823 370.286C525.796 370.13 525.801 369.97 525.836 369.815Z" fill="url(#paint12_linear_73_45)"/>
<path d="M-45.6826 196.991C-45.6064 196.683 -45.4131 196.417 -45.1439 196.25C-44.8746 196.082 -44.5506 196.026 -44.2408 196.094C-43.6 196.254 56.7954 154.121 56.6833 154.762C56.5711 155.403 -44.1126 198.577 -44.7534 198.417C-44.9092 198.386 -45.0573 198.325 -45.1889 198.236C-45.3205 198.148 -45.433 198.033 -45.5196 197.9C-45.6063 197.767 -45.6653 197.618 -45.6933 197.462C-45.7213 197.306 -45.7177 197.146 -45.6826 196.991Z" fill="url(#paint13_linear_73_45)"/>
<path d="M67.705 397.706C68.0171 397.282 68.4478 396.961 68.9426 396.782C69.4374 396.603 69.9741 396.576 70.4848 396.702C70.9955 396.828 71.4572 397.103 71.8115 397.492C72.1658 397.881 72.3968 398.366 72.4753 398.887C72.5538 399.407 72.4762 399.939 72.2524 400.415C72.0285 400.891 71.6685 401.29 71.2179 401.561C70.7672 401.833 70.2462 401.964 69.7207 401.94C69.1952 401.915 68.6889 401.735 68.2657 401.422C67.6989 401.004 67.3214 400.377 67.2163 399.68C67.1112 398.983 67.2869 398.273 67.705 397.706Z" fill="url(#paint14_linear_73_45)"/>
<path d="M641.177 89.3686C641.488 88.9483 641.916 88.6295 642.408 88.4524C642.899 88.2753 643.432 88.2479 643.939 88.3736C644.446 88.4993 644.905 88.7725 645.257 89.1587C645.609 89.5448 645.839 90.0267 645.917 90.5433C645.995 91.0599 645.919 91.5881 645.697 92.0612C645.475 92.5343 645.118 92.9311 644.671 93.2014C644.224 93.4717 643.706 93.6034 643.184 93.5799C642.662 93.5564 642.159 93.3787 641.738 93.0692C641.458 92.8633 641.221 92.6042 641.041 92.3066C640.861 92.0091 640.742 91.679 640.69 91.3352C640.638 90.9915 640.654 90.6408 640.738 90.3034C640.821 89.9659 640.971 89.6482 641.177 89.3686Z" fill="url(#paint15_linear_73_45)"/>
<path d="M632.351 233.756C632.846 233.921 633.281 234.228 633.602 234.639C633.923 235.051 634.115 235.548 634.154 236.069C634.193 236.589 634.077 237.109 633.821 237.564C633.564 238.018 633.179 238.387 632.714 238.623C632.249 238.859 631.724 238.952 631.205 238.89C630.687 238.828 630.199 238.615 629.802 238.276C629.405 237.937 629.118 237.488 628.975 236.986C628.833 236.484 628.842 235.951 629.002 235.455C629.109 235.122 629.281 234.815 629.508 234.549C629.734 234.284 630.011 234.066 630.323 233.908C630.634 233.75 630.973 233.655 631.321 233.629C631.67 233.603 632.019 233.647 632.351 233.756Z" fill="url(#paint16_linear_73_45)"/>
<path d="M371.117 42.0936C371.117 41.8077 371.202 41.5283 371.361 41.2909C371.521 41.0535 371.747 40.8687 372.011 40.7601C372.275 40.6514 372.566 40.6238 372.846 40.6808C373.126 40.7377 373.383 40.8766 373.584 41.0799C373.785 41.2831 373.921 41.5415 373.975 41.8222C374.029 42.103 373.998 42.3934 373.886 42.6565C373.775 42.9197 373.588 43.1437 373.348 43.3002C373.109 43.4567 372.829 43.5385 372.543 43.5354C372.354 43.5354 372.168 43.498 371.994 43.4253C371.82 43.3527 371.662 43.2462 371.529 43.1121C371.397 42.978 371.292 42.8189 371.221 42.6441C371.151 42.4693 371.115 42.2821 371.117 42.0936Z" fill="url(#paint17_linear_73_45)"/>
<path d="M591.068 154.041C591.068 153.756 591.153 153.477 591.311 153.24C591.47 153.003 591.695 152.818 591.959 152.709C592.222 152.6 592.512 152.572 592.791 152.627C593.071 152.683 593.328 152.82 593.53 153.022C593.731 153.224 593.869 153.48 593.924 153.76C593.98 154.04 593.951 154.33 593.842 154.593C593.733 154.857 593.548 155.082 593.311 155.24C593.074 155.399 592.795 155.483 592.51 155.483C592.32 155.485 592.132 155.45 591.956 155.378C591.78 155.306 591.62 155.2 591.486 155.066C591.352 154.931 591.246 154.772 591.174 154.596C591.102 154.42 591.066 154.231 591.068 154.041Z" fill="url(#paint18_linear_73_45)"/>
<path d="M283.106 86.3093C283.363 86.0271 283.722 85.8585 284.103 85.8405C284.484 85.8225 284.857 85.9565 285.14 86.2131C285.377 86.4799 285.507 86.8252 285.505 87.1822C285.502 87.5392 285.367 87.8825 285.126 88.1457C284.884 88.4088 284.554 88.5731 284.199 88.6068C283.843 88.6404 283.488 88.541 283.202 88.3278C282.924 88.0711 282.759 87.7157 282.741 87.3382C282.723 86.9607 282.854 86.5912 283.106 86.3093Z" fill="url(#paint19_linear_73_45)"/>
<path d="M477.168 281.705C477.165 281.418 477.247 281.137 477.404 280.898C477.562 280.658 477.787 280.471 478.051 280.36C478.315 280.249 478.606 280.219 478.887 280.274C479.168 280.329 479.427 280.467 479.629 280.669C479.832 280.872 479.969 281.13 480.025 281.411C480.08 281.693 480.05 281.984 479.939 282.248C479.828 282.512 479.64 282.737 479.401 282.894C479.161 283.051 478.88 283.134 478.594 283.131C478.216 283.131 477.853 282.98 477.586 282.713C477.318 282.446 477.168 282.083 477.168 281.705Z" fill="url(#paint20_linear_73_45)"/>
<path d="M342.875 242.969C343.158 242.923 343.449 242.963 343.71 243.084C343.971 243.205 344.189 243.4 344.338 243.646C344.486 243.892 344.558 244.177 344.544 244.464C344.529 244.751 344.43 245.027 344.257 245.257C344.085 245.487 343.848 245.66 343.576 245.754C343.305 245.848 343.011 245.859 342.734 245.785C342.456 245.712 342.207 245.557 342.018 245.34C341.829 245.124 341.709 244.856 341.673 244.571C341.627 244.2 341.726 243.826 341.95 243.527C342.175 243.228 342.506 243.028 342.875 242.969Z" fill="url(#paint21_linear_73_45)"/>
<path d="M429.285 339.201C429.569 339.155 429.859 339.195 430.12 339.316C430.381 339.437 430.6 339.633 430.748 339.879C430.897 340.125 430.968 340.41 430.954 340.696C430.94 340.983 430.84 341.26 430.667 341.49C430.495 341.719 430.258 341.892 429.986 341.987C429.715 342.081 429.422 342.092 429.144 342.018C428.866 341.944 428.617 341.789 428.428 341.573C428.239 341.356 428.119 341.088 428.083 340.803C428.037 340.432 428.137 340.058 428.361 339.759C428.585 339.461 428.916 339.26 429.285 339.201Z" fill="url(#paint22_linear_73_45)"/>
<path d="M240.749 144.782C240.944 144.731 241.148 144.722 241.347 144.755C241.546 144.788 241.736 144.862 241.905 144.973C242.074 145.084 242.217 145.229 242.326 145.399C242.435 145.569 242.507 145.76 242.537 145.96C242.567 146.159 242.556 146.363 242.502 146.558C242.449 146.752 242.356 146.934 242.228 147.09C242.1 147.246 241.941 147.374 241.761 147.465C241.58 147.555 241.383 147.607 241.182 147.617C240.81 147.668 240.434 147.57 240.134 147.345C239.834 147.12 239.635 146.786 239.58 146.416C239.524 146.045 239.614 145.667 239.833 145.361C240.051 145.056 240.38 144.848 240.749 144.782Z" fill="url(#paint23_linear_73_45)"/>
<path d="M470.536 56.3995C470.816 56.3576 471.101 56.3998 471.357 56.5208C471.613 56.6417 471.827 56.836 471.971 57.0789C472.116 57.3218 472.186 57.6022 472.171 57.8847C472.156 58.1671 472.057 58.4387 471.888 58.665C471.718 58.8912 471.485 59.0619 471.218 59.1553C470.951 59.2487 470.662 59.2606 470.389 59.1895C470.115 59.1183 469.868 58.9674 469.681 58.7559C469.493 58.5443 469.372 58.2817 469.334 58.0015C469.307 57.8173 469.317 57.6295 469.363 57.4491C469.409 57.2686 469.49 57.099 469.601 56.9501C469.713 56.8011 469.853 56.6758 470.013 56.5813C470.174 56.4868 470.351 56.425 470.536 56.3995Z" fill="url(#paint24_linear_73_45)"/>
<path d="M676.42 356.326C676.424 356.613 676.341 356.894 676.184 357.133C676.027 357.373 675.802 357.56 675.538 357.671C675.274 357.782 674.983 357.812 674.701 357.757C674.42 357.702 674.162 357.564 673.959 357.362C673.757 357.159 673.619 356.901 673.564 356.62C673.509 356.338 673.539 356.047 673.65 355.783C673.761 355.519 673.948 355.294 674.188 355.137C674.427 354.98 674.708 354.897 674.995 354.9C675.373 354.9 675.736 355.051 676.003 355.318C676.27 355.585 676.42 355.948 676.42 356.326Z" fill="url(#paint25_linear_73_45)"/>
<path d="M620.882 229.8C620.735 229.918 620.567 230.005 620.386 230.057C620.206 230.109 620.016 230.124 619.83 230.102C619.643 230.079 619.463 230.02 619.3 229.927C619.136 229.834 618.993 229.709 618.879 229.56C618.761 229.412 618.673 229.242 618.621 229.06C618.569 228.879 618.554 228.688 618.576 228.5C618.599 228.312 618.658 228.131 618.752 227.966C618.845 227.802 618.97 227.657 619.119 227.541C619.421 227.308 619.803 227.205 620.182 227.253C620.56 227.301 620.904 227.497 621.138 227.798C621.253 227.946 621.337 228.115 621.387 228.296C621.436 228.477 621.449 228.666 621.425 228.852C621.401 229.038 621.341 229.218 621.248 229.38C621.155 229.543 621.03 229.686 620.882 229.8Z" fill="url(#paint26_linear_73_45)"/>
<path d="M454.5 132.447C454.5 132.733 454.415 133.012 454.256 133.249C454.096 133.487 453.87 133.672 453.606 133.78C453.342 133.889 453.051 133.917 452.771 133.86C452.491 133.803 452.234 133.664 452.033 133.46C451.832 133.257 451.696 132.999 451.642 132.718C451.588 132.437 451.619 132.147 451.731 131.884C451.842 131.621 452.029 131.397 452.269 131.24C452.508 131.084 452.788 131.002 453.074 131.005C453.263 131.005 453.449 131.042 453.623 131.115C453.797 131.188 453.955 131.294 454.088 131.428C454.22 131.562 454.325 131.721 454.396 131.896C454.467 132.071 454.502 132.258 454.5 132.447Z" fill="url(#paint27_linear_73_45)"/>
<path d="M315.065 283.659C315.068 283.945 314.986 284.225 314.83 284.465C314.673 284.704 314.449 284.891 314.186 285.003C313.923 285.114 313.633 285.145 313.352 285.091C313.071 285.037 312.813 284.901 312.61 284.7C312.406 284.499 312.267 284.243 312.211 283.962C312.154 283.682 312.181 283.392 312.29 283.127C312.398 282.863 312.583 282.637 312.821 282.478C313.058 282.318 313.337 282.233 313.623 282.233C314.003 282.233 314.367 282.383 314.637 282.65C314.907 282.917 315.061 283.28 315.065 283.659Z" fill="url(#paint28_linear_73_45)"/>
<path d="M618.254 59.2191C617.974 59.261 617.689 59.2188 617.433 59.0978C617.177 58.9768 616.964 58.7826 616.819 58.5397C616.674 58.2968 616.604 58.0164 616.619 57.7339C616.634 57.4515 616.733 57.1799 616.902 56.9536C617.072 56.7274 617.305 56.5567 617.572 56.4633C617.839 56.3699 618.128 56.358 618.402 56.4291C618.675 56.5003 618.922 56.6512 619.109 56.8627C619.297 57.0743 619.418 57.3369 619.456 57.6171C619.506 57.9885 619.408 58.3647 619.184 58.6645C618.959 58.9644 618.625 59.1636 618.254 59.2191Z" fill="url(#paint29_linear_73_45)"/>
<path d="M577.018 342.036C576.823 342.087 576.619 342.096 576.42 342.063C576.221 342.03 576.031 341.956 575.862 341.845C575.694 341.734 575.551 341.589 575.442 341.419C575.333 341.249 575.261 341.058 575.23 340.858C575.2 340.659 575.212 340.455 575.265 340.261C575.318 340.066 575.412 339.885 575.54 339.728C575.667 339.572 575.826 339.444 576.007 339.354C576.187 339.263 576.384 339.211 576.586 339.201C576.942 339.184 577.292 339.299 577.568 339.525C577.844 339.751 578.027 340.071 578.081 340.424C578.135 340.776 578.056 341.136 577.86 341.434C577.663 341.732 577.364 341.947 577.018 342.036Z" fill="url(#paint30_linear_73_45)"/>
<path d="M561.304 237.954C560.933 238 560.559 237.901 560.26 237.677C559.961 237.453 559.761 237.121 559.702 236.753C559.651 236.557 559.642 236.353 559.675 236.154C559.708 235.955 559.782 235.765 559.893 235.597C560.004 235.428 560.149 235.285 560.319 235.176C560.489 235.067 560.68 234.995 560.88 234.965C561.079 234.934 561.283 234.946 561.478 234.999C561.672 235.052 561.854 235.146 562.01 235.274C562.166 235.402 562.294 235.561 562.385 235.741C562.475 235.921 562.527 236.118 562.537 236.32C562.564 236.508 562.554 236.7 562.506 236.885C562.459 237.069 562.375 237.242 562.261 237.394C562.146 237.546 562.002 237.674 561.838 237.77C561.674 237.866 561.492 237.929 561.304 237.954Z" fill="url(#paint31_linear_73_45)"/>
<path d="M329.562 155.467C329.192 155.513 328.818 155.414 328.519 155.19C328.22 154.966 328.02 154.634 327.96 154.266C327.91 154.07 327.9 153.867 327.933 153.667C327.966 153.468 328.041 153.278 328.152 153.11C328.263 152.941 328.408 152.798 328.578 152.689C328.748 152.58 328.939 152.508 329.138 152.478C329.338 152.447 329.542 152.459 329.736 152.512C329.931 152.566 330.112 152.659 330.269 152.787C330.425 152.915 330.552 153.074 330.643 153.254C330.734 153.434 330.786 153.632 330.796 153.833C330.846 154.213 330.745 154.597 330.514 154.903C330.283 155.209 329.941 155.412 329.562 155.467Z" fill="url(#paint32_linear_73_45)"/>
<path opacity="0.61" d="M473.073 310.335C526.989 297.59 560.365 243.549 547.62 189.631C534.875 135.713 480.834 102.337 426.918 115.082C373.001 127.828 339.625 181.869 352.37 235.787C365.116 289.704 419.156 323.081 473.073 310.335Z" fill="url(#paint33_linear_73_45)"/>
<path opacity="0.41" d="M-19.0082 512.692C11.0537 495.132 21.1887 456.526 3.62904 426.463C-13.9307 396.401 -52.5356 386.266 -82.5975 403.826C-112.659 421.386 -122.794 459.992 -105.235 490.054C-87.675 520.116 -49.07 530.252 -19.0082 512.692Z" fill="url(#paint34_linear_73_45)"/>
<path d="M-69.1837 743.513L83.9966 621.745L205.762 588.359L247.013 541.228L325.557 444.996L413.938 580.509L453.218 574.614L559.269 649.235L622.114 639.415L816.545 806.359L-84.2422 807.224L-69.1837 743.513Z" fill="url(#paint35_linear_73_45)"/>
<mask id="mask1_73_45" style="mask-type:luminance" maskUnits="userSpaceOnUse" x="-85" y="444" width="902" height="364">
<path d="M-69.1837 743.513L83.9966 621.745L205.762 588.359L247.013 541.228L325.557 444.996L413.938 580.509L453.218 574.614L559.269 649.235L622.114 639.415L816.545 806.359L-84.2422 807.224L-69.1837 743.513Z" fill="white"/>
</mask>
<g mask="url(#mask1_73_45)">
<path style="mix-blend-mode:multiply" opacity="0.13" d="M327.528 425.356L309.906 529.486L292.284 521.636L209.799 635.538V604.075L84.1083 643.356L-14.1885 769.049L-88.8242 719.9L60.4312 535.285C60.4312 535.285 290.186 382.15 327.528 425.356Z" fill="url(#paint36_linear_73_45)"/>
</g>
<path style="mix-blend-mode:screen" opacity="0.16" d="M240.925 696.783C240.925 696.783 914.569 706.779 905.87 696.783C897.172 686.786 879.71 661.763 847.783 671.84C815.856 681.916 801.326 626.808 772.298 641.818C743.271 656.829 693.882 586.742 667.77 616.747C641.658 646.752 580.655 691.785 560.326 656.797C539.997 621.809 438.384 551.69 426.77 606.75C415.155 661.811 374.497 666.761 359.984 641.754C345.47 616.747 313.526 676.774 281.583 666.761C249.64 656.749 226.411 696.783 240.925 696.783Z" fill="url(#paint37_linear_73_45)"/>
<path d="M-499.28 613.895L-371.635 541.229L-234.154 674.771H-110.434L-6.30634 727.797H111.535C111.535 727.797 245.075 804.389 247.045 806.295C249.016 808.202 -499.248 806.295 -499.248 806.295L-499.28 613.895Z" fill="url(#paint38_linear_73_45)"/>
<mask id="mask2_73_45" style="mask-type:luminance" maskUnits="userSpaceOnUse" x="-500" y="541" width="748" height="267">
<path d="M-499.28 613.895L-371.635 541.229L-234.154 674.771H-110.434L-6.30634 727.797H111.535C111.535 727.797 245.075 804.389 247.045 806.295C249.016 808.202 -499.248 806.295 -499.248 806.295L-499.28 613.895Z" fill="white"/>
</mask>
<g mask="url(#mask2_73_45)">
<path style="mix-blend-mode:multiply" opacity="0.13" d="M-375.561 527.468L-240.05 710.128L-226.305 692.458L-108.464 698.337L-98.6442 745.484L-65.2592 717.978L19.1967 802.435L-84.8993 625.67L-302.895 551.049L-375.561 527.468Z" fill="url(#paint39_linear_73_45)"/>
</g>
<path d="M506.244 710.128L400.193 643.356L229.311 727.798L125.183 696.382L1.5112 780.776L-112.389 800.416C-112.389 800.416 -249.87 857.383 -251.76 859.338C-253.65 861.292 494.533 859.338 494.533 859.338L506.244 710.128Z" fill="url(#paint40_linear_73_45)"/>
<mask id="mask3_73_45" style="mask-type:luminance" maskUnits="userSpaceOnUse" x="-252" y="643" width="759" height="218">
<path d="M506.244 710.128L400.193 643.356L229.311 727.798L125.183 696.382L1.5112 780.776L-112.389 800.416C-112.389 800.416 -249.87 857.383 -251.76 859.338C-253.65 861.292 494.533 859.338 494.533 859.338L506.244 710.128Z" fill="white"/>
</mask>
<g mask="url(#mask3_73_45)">
<path style="mix-blend-mode:multiply" opacity="0.13" d="M406.088 633.536L353.063 698.337L339.318 692.458L219.507 757.258L203.808 741.543L127.201 706.203L11.3311 751.363L119.352 649.236L209.687 661.026L406.088 633.536Z" fill="url(#paint41_linear_73_45)"/>
</g>
<path d="M317.708 790.644C321.633 786.719 514.109 661.026 514.109 661.026H596.595L651.574 611.925H732.105L818.516 541.229L1032.59 684.656L1024.72 843.734L317.708 826.112V790.644Z" fill="url(#paint42_linear_73_45)"/>
<mask id="mask4_73_45" style="mask-type:luminance" maskUnits="userSpaceOnUse" x="317" y="541" width="716" height="303">
<path d="M317.708 790.644C321.633 786.719 514.109 661.026 514.109 661.026H596.595L651.574 611.925H732.105L818.516 541.229L1032.59 684.656L1024.72 843.734L317.708 826.112V790.644Z" fill="white"/>
</mask>
<g mask="url(#mask4_73_45)">
<path style="mix-blend-mode:multiply" opacity="0.13" d="M419.834 776.899L512.139 678.696L582.834 729.768L559.269 674.771L631.935 692.457L657.47 625.67L743.88 633.536L842.081 535.333L816.546 735.663L783.161 831.895L527.855 800.464L419.834 776.899Z" fill="url(#paint43_linear_73_45)"/>
</g>
<path style="mix-blend-mode:screen" opacity="0.11" d="M268.143 549.479C268.143 549.479 600.536 552.346 596.242 549.479C591.949 546.611 583.427 539.45 567.583 542.302C551.74 545.153 544.659 529.486 530.337 533.715C516.016 537.944 491.65 517.951 478.754 526.554C465.858 535.157 435.773 548.037 425.745 538.008C415.716 527.98 365.575 507.923 359.84 523.686C354.105 539.45 334.048 540.876 326.887 533.715C319.726 526.554 303.963 543.744 288.2 540.876C272.436 538.008 260.982 549.479 268.143 549.479Z" fill="url(#paint44_linear_73_45)"/>
<path style="mix-blend-mode:screen" opacity="0.07" d="M443.511 146.383C443.511 146.383 775.904 149.251 771.61 146.383C767.317 143.516 758.794 136.355 742.951 139.222C727.108 142.09 720.027 126.326 705.705 130.62C691.384 134.913 667.018 114.872 654.122 123.459C641.226 132.046 611.141 144.958 601.113 134.929C591.084 124.901 540.943 104.731 535.288 120.559C529.633 136.387 509.496 137.749 502.335 130.588C495.174 123.427 479.411 140.616 463.648 137.749C447.884 134.881 436.35 146.383 443.511 146.383Z" fill="url(#paint45_linear_73_45)"/>
<path style="mix-blend-mode:screen" opacity="0.16" d="M100.881 810.621C100.881 810.621 727.251 816.02 719.241 810.621C711.231 805.222 694.939 791.717 665.239 797.132C635.538 802.547 621.986 772.83 595.04 780.92C568.095 789.01 522.135 751.219 497.833 767.431C473.531 783.643 416.741 808.01 397.902 789.026C379.063 770.042 284.499 732.315 273.685 762.016C262.872 791.717 225.082 794.425 211.593 780.92C198.104 767.415 168.34 799.824 138.687 794.425C109.035 789.026 87.3764 810.621 100.881 810.621Z" fill="url(#paint46_linear_73_45)"/>
<path style="mix-blend-mode:screen" opacity="0.11" d="M-177.973 533.475C-177.973 533.475 278.332 537.416 272.437 533.475C266.541 529.534 254.735 519.714 233.092 523.638C211.45 527.563 201.63 505.936 181.957 511.848C162.285 517.759 128.852 490.205 111.15 502.011C93.4487 513.818 52.1499 531.504 38.389 517.743C24.6281 503.982 -44.2245 476.395 -52.0902 498.07C-59.9559 519.746 -87.4937 521.684 -97.3298 511.848C-107.166 502.011 -128.792 525.609 -150.435 521.684C-172.078 517.759 -187.793 533.475 -177.973 533.475Z" fill="url(#paint47_linear_73_45)"/>
<path style="mix-blend-mode:screen" opacity="0.07" d="M288.072 394.309C288.072 394.309 961.716 404.322 953.001 394.309C944.286 384.297 926.873 359.289 894.93 369.302C862.986 379.314 848.472 324.286 819.429 339.28C790.385 354.275 741.028 284.268 714.9 314.273C688.772 344.279 627.785 389.311 607.472 354.323C587.159 319.335 485.514 249.28 473.9 304.309C462.286 359.337 421.628 364.256 407.13 339.28C392.632 314.305 360.673 374.3 328.714 364.256C296.754 354.211 273.542 394.309 288.072 394.309Z" fill="url(#paint48_linear_73_45)"/>
<path style="mix-blend-mode:screen" opacity="0.11" d="M-178.79 293.768C-178.79 293.768 173.643 298.99 169.141 293.768C164.64 288.545 155.477 275.441 138.704 280.679C121.931 285.918 114.402 257.114 99.1993 264.964C83.9966 272.814 58.1889 236.128 44.5081 251.876C30.8273 267.623 -1.01987 291.205 -11.6569 272.942C-22.294 254.679 -75.4794 217.913 -81.4707 246.717C-87.4621 275.521 -108.816 278.116 -116.426 265.028C-124.035 251.94 -140.728 283.355 -157.436 278.116C-174.145 272.878 -186.384 293.768 -178.79 293.768Z" fill="url(#paint49_linear_73_45)"/>
<path style="mix-blend-mode:screen" opacity="0.16" d="M-298.601 721.903H247.286C247.286 721.903 202.863 707.581 168.485 714.742C134.106 721.903 106.873 687.508 83.9489 700.42C61.0247 713.332 26.6304 709.023 19.4696 700.42C12.3088 691.817 -9.18964 655.996 -34.9973 676.053C-60.8051 696.11 -52.1704 638.807 -72.2271 657.422C-92.2838 676.037 -108.047 704.697 -122.369 690.375C-136.69 676.053 -125.236 645.952 -145.293 638.791C-165.35 631.63 -202.595 645.952 -204.037 680.347C-204.037 680.347 -179.671 561.43 -294.292 598.645C-408.913 635.859 -308.63 721.855 -308.63 721.855L-298.601 721.903Z" fill="url(#paint50_linear_73_45)"/>
<path style="mix-blend-mode:screen" opacity="0.07" d="M824.875 299.663H459.386C459.386 299.663 489.118 290.051 512.139 294.857C535.159 299.663 553.389 276.626 568.736 285.245C584.083 293.864 607.183 291.012 611.989 285.245C616.795 279.478 631.213 255.512 648.45 268.937C665.687 282.361 659.952 243.993 673.393 256.473C686.833 268.953 697.422 288.129 707.034 278.533C716.646 268.937 708.956 248.799 722.397 243.993C735.838 239.187 760.764 248.799 761.725 271.82C761.725 271.82 745.417 192.201 822.152 217.144C898.886 242.087 831.763 299.647 831.763 299.647L824.875 299.663Z" fill="url(#paint51_linear_73_45)"/>
</g>
</g>
<defs>
<linearGradient id="paint0_linear_73_45" x1="220.501" y1="861.068" x2="220.501" y2="-2.79443" gradientUnits="userSpaceOnUse">
<stop offset="0.01" stop-color="#7A92E8"/>
<stop offset="1" stop-color="#383DB2"/>
</linearGradient>
<linearGradient id="paint1_linear_73_45" x1="127.057" y1="354.9" x2="127.057" y2="357.768" gradientUnits="userSpaceOnUse">
<stop offset="0.01" stop-color="#78A9ED"/>
<stop offset="1" stop-color="#D3D2EC"/>
</linearGradient>
<linearGradient id="paint2_linear_73_45" x1="21.0068" y1="115.289" x2="21.0068" y2="118.156" gradientUnits="userSpaceOnUse">
<stop offset="0.01" stop-color="#78A9ED"/>
<stop offset="1" stop-color="#D3D2EC"/>
</linearGradient>
<linearGradient id="paint3_linear_73_45" x1="157.991" y1="153.83" x2="155.157" y2="154.262" gradientUnits="userSpaceOnUse">
<stop offset="0.01" stop-color="#78A9ED"/>
<stop offset="1" stop-color="#D3D2EC"/>
</linearGradient>
<linearGradient id="paint4_linear_73_45" x1="71.5653" y1="57.5956" x2="68.7304" y2="58.0274" gradientUnits="userSpaceOnUse">
<stop offset="0.01" stop-color="#78A9ED"/>
<stop offset="1" stop-color="#D3D2EC"/>
</linearGradient>
<linearGradient id="paint5_linear_73_45" x1="260.126" y1="252.015" x2="257.291" y2="252.447" gradientUnits="userSpaceOnUse">
<stop offset="0.01" stop-color="#78A9ED"/>
<stop offset="1" stop-color="#D3D2EC"/>
</linearGradient>
<linearGradient id="paint6_linear_73_45" x1="30.3435" y1="340.409" x2="27.5086" y2="340.84" gradientUnits="userSpaceOnUse">
<stop offset="0.01" stop-color="#78A9ED"/>
<stop offset="1" stop-color="#D3D2EC"/>
</linearGradient>
<linearGradient id="paint7_linear_73_45" x1="46.5269" y1="267.431" x2="46.5269" y2="264.563" gradientUnits="userSpaceOnUse">
<stop offset="0.01" stop-color="#78A9ED"/>
<stop offset="1" stop-color="#D3D2EC"/>
</linearGradient>
<linearGradient id="paint8_linear_73_45" x1="185.962" y1="116.202" x2="185.962" y2="113.335" gradientUnits="userSpaceOnUse">
<stop offset="0.01" stop-color="#78A9ED"/>
<stop offset="1" stop-color="#D3D2EC"/>
</linearGradient>
<linearGradient id="paint9_linear_73_45" x1="168.81" y1="244.605" x2="171.645" y2="244.174" gradientUnits="userSpaceOnUse">
<stop offset="0.01" stop-color="#78A9ED"/>
<stop offset="1" stop-color="#D3D2EC"/>
</linearGradient>
<linearGradient id="paint10_linear_73_45" x1="95.7661" y1="222.701" x2="98.8988" y2="218.443" gradientUnits="userSpaceOnUse">
<stop offset="0.01" stop-color="#78A9ED"/>
<stop offset="1" stop-color="#D3D2EC"/>
</linearGradient>
<linearGradient id="paint11_linear_73_45" x1="81.8589" y1="580.132" x2="115.434" y2="438.537" gradientUnits="userSpaceOnUse">
<stop stop-color="#D3D2EC"/>
<stop offset="1" stop-color="#7EACED" stop-opacity="0"/>
</linearGradient>
<linearGradient id="paint12_linear_73_45" x1="569.229" y1="379.909" x2="584.332" y2="316.213" gradientUnits="userSpaceOnUse">
<stop stop-color="#D3D2EC"/>
<stop offset="1" stop-color="#7EACED" stop-opacity="0"/>
</linearGradient>
<linearGradient id="paint13_linear_73_45" x1="-0.0570218" y1="206.137" x2="15.0427" y2="142.457" gradientUnits="userSpaceOnUse">
<stop stop-color="#D3D2EC"/>
<stop offset="1" stop-color="#7EACED" stop-opacity="0"/>
</linearGradient>
<linearGradient id="paint14_linear_73_45" x1="68.2622" y1="401.426" x2="71.4044" y2="397.155" gradientUnits="userSpaceOnUse">
<stop offset="0.01" stop-color="#78A9ED"/>
<stop offset="1" stop-color="#D3D2EC"/>
</linearGradient>
<linearGradient id="paint15_linear_73_45" x1="641.727" y1="93.0591" x2="644.869" y2="88.7878" gradientUnits="userSpaceOnUse">
<stop offset="0.01" stop-color="#78A9ED"/>
<stop offset="1" stop-color="#D3D2EC"/>
</linearGradient>
<linearGradient id="paint16_linear_73_45" x1="629.004" y1="235.491" x2="634.045" y2="237.135" gradientUnits="userSpaceOnUse">
<stop offset="0.01" stop-color="#78A9ED"/>
<stop offset="1" stop-color="#D3D2EC"/>
</linearGradient>
<linearGradient id="paint17_linear_73_45" x1="372.543" y1="43.5354" x2="372.543" y2="40.6678" gradientUnits="userSpaceOnUse">
<stop offset="0.01" stop-color="#78A9ED"/>
<stop offset="1" stop-color="#D3D2EC"/>
</linearGradient>
<linearGradient id="paint18_linear_73_45" x1="592.494" y1="155.483" x2="592.494" y2="152.616" gradientUnits="userSpaceOnUse">
<stop offset="0.01" stop-color="#78A9ED"/>
<stop offset="1" stop-color="#D3D2EC"/>
</linearGradient>
<linearGradient id="paint19_linear_73_45" x1="280.542" y1="85.8642" x2="282.492" y2="83.7423" gradientUnits="userSpaceOnUse">
<stop offset="0.01" stop-color="#78A9ED"/>
<stop offset="1" stop-color="#D3D2EC"/>
</linearGradient>
<linearGradient id="paint20_linear_73_45" x1="478.594" y1="283.147" x2="478.594" y2="280.279" gradientUnits="userSpaceOnUse">
<stop offset="0.01" stop-color="#78A9ED"/>
<stop offset="1" stop-color="#D3D2EC"/>
</linearGradient>
<linearGradient id="paint21_linear_73_45" x1="341.638" y1="244.633" x2="344.473" y2="244.201" gradientUnits="userSpaceOnUse">
<stop offset="0.01" stop-color="#78A9ED"/>
<stop offset="1" stop-color="#D3D2EC"/>
</linearGradient>
<linearGradient id="paint22_linear_73_45" x1="428.064" y1="340.868" x2="430.899" y2="340.436" gradientUnits="userSpaceOnUse">
<stop offset="0.01" stop-color="#78A9ED"/>
<stop offset="1" stop-color="#D3D2EC"/>
</linearGradient>
<linearGradient id="paint23_linear_73_45" x1="239.52" y1="146.445" x2="242.339" y2="146.016" gradientUnits="userSpaceOnUse">
<stop offset="0.01" stop-color="#78A9ED"/>
<stop offset="1" stop-color="#D3D2EC"/>
</linearGradient>
<linearGradient id="paint24_linear_73_45" x1="469.287" y1="58.0548" x2="472.121" y2="57.623" gradientUnits="userSpaceOnUse">
<stop offset="0.01" stop-color="#78A9ED"/>
<stop offset="1" stop-color="#D3D2EC"/>
</linearGradient>
<linearGradient id="paint25_linear_73_45" x1="674.995" y1="354.9" x2="674.995" y2="357.768" gradientUnits="userSpaceOnUse">
<stop offset="0.01" stop-color="#78A9ED"/>
<stop offset="1" stop-color="#D3D2EC"/>
</linearGradient>
<linearGradient id="paint26_linear_73_45" x1="621.089" y1="227.814" x2="618.832" y2="229.583" gradientUnits="userSpaceOnUse">
<stop offset="0.01" stop-color="#78A9ED"/>
<stop offset="1" stop-color="#D3D2EC"/>
</linearGradient>
<linearGradient id="paint27_linear_73_45" x1="453.074" y1="131.005" x2="453.074" y2="133.873" gradientUnits="userSpaceOnUse">
<stop offset="0.01" stop-color="#78A9ED"/>
<stop offset="1" stop-color="#D3D2EC"/>
</linearGradient>
<linearGradient id="paint28_linear_73_45" x1="313.623" y1="282.233" x2="313.623" y2="285.101" gradientUnits="userSpaceOnUse">
<stop offset="0.01" stop-color="#78A9ED"/>
<stop offset="1" stop-color="#D3D2EC"/>
</linearGradient>
<linearGradient id="paint29_linear_73_45" x1="619.522" y1="57.5927" x2="616.687" y2="58.0244" gradientUnits="userSpaceOnUse">
<stop offset="0.01" stop-color="#78A9ED"/>
<stop offset="1" stop-color="#D3D2EC"/>
</linearGradient>
<linearGradient id="paint30_linear_73_45" x1="578.286" y1="340.424" x2="575.467" y2="340.853" gradientUnits="userSpaceOnUse">
<stop offset="0.01" stop-color="#78A9ED"/>
<stop offset="1" stop-color="#D3D2EC"/>
</linearGradient>
<linearGradient id="paint31_linear_73_45" x1="562.579" y1="236.334" x2="559.744" y2="236.766" gradientUnits="userSpaceOnUse">
<stop offset="0.01" stop-color="#78A9ED"/>
<stop offset="1" stop-color="#D3D2EC"/>
</linearGradient>
<linearGradient id="paint32_linear_73_45" x1="330.82" y1="153.857" x2="327.985" y2="154.289" gradientUnits="userSpaceOnUse">
<stop offset="0.01" stop-color="#78A9ED"/>
<stop offset="1" stop-color="#D3D2EC"/>
</linearGradient>
<linearGradient id="paint33_linear_73_45" x1="429.263" y1="114.564" x2="470.635" y2="310.887" gradientUnits="userSpaceOnUse">
<stop offset="0.01" stop-color="#78A9ED"/>
<stop offset="1" stop-color="#4655B7" stop-opacity="0"/>
</linearGradient>
<linearGradient id="paint34_linear_73_45" x1="-15.4087" y1="406.167" x2="-86.2022" y2="510.531" gradientUnits="userSpaceOnUse">
<stop offset="0.01" stop-color="#78A9ED"/>
<stop offset="1" stop-color="#4655B7" stop-opacity="0"/>
</linearGradient>
<linearGradient id="paint35_linear_73_45" x1="366.151" y1="444.996" x2="366.151" y2="807.24" gradientUnits="userSpaceOnUse">
<stop offset="0.01" stop-color="#7A92E8"/>
<stop offset="1" stop-color="#4949B3"/>
</linearGradient>
<linearGradient id="paint36_linear_73_45" x1="119.352" y1="769.049" x2="119.352" y2="417.666" gradientUnits="userSpaceOnUse">
<stop offset="0.01" stop-color="#7A92E8"/>
<stop offset="1" stop-color="#4949B3"/>
</linearGradient>
<linearGradient id="paint37_linear_73_45" x1="571.235" y1="586.373" x2="571.235" y2="701.236" gradientUnits="userSpaceOnUse">
<stop offset="0.01" stop-color="#6EB4C9"/>
<stop offset="0.15" stop-color="#6FB5C9" stop-opacity="0.98"/>
<stop offset="0.29" stop-color="#72B8CA" stop-opacity="0.92"/>
<stop offset="0.43" stop-color="#76BCCA" stop-opacity="0.82"/>
<stop offset="0.57" stop-color="#7DC3CB" stop-opacity="0.68"/>
<stop offset="0.71" stop-color="#86CBCD" stop-opacity="0.5"/>
<stop offset="0.85" stop-color="#90D5CE" stop-opacity="0.28"/>
<stop offset="0.99" stop-color="#9CE1D0" stop-opacity="0.02"/>
<stop offset="1" stop-color="#9DE2D0" stop-opacity="0"/>
</linearGradient>
<linearGradient id="paint38_linear_73_45" x1="-126.134" y1="541.229" x2="-126.134" y2="807.241" gradientUnits="userSpaceOnUse">
<stop offset="0.01" stop-color="#7A92E8"/>
<stop offset="1" stop-color="#4949B3"/>
</linearGradient>
<linearGradient id="paint39_linear_73_45" x1="-178.182" y1="802.435" x2="-178.182" y2="527.484" gradientUnits="userSpaceOnUse">
<stop offset="0.01" stop-color="#7A92E8"/>
<stop offset="1" stop-color="#4949B3"/>
</linearGradient>
<linearGradient id="paint40_linear_73_45" x1="127.202" y1="673.794" x2="127.202" y2="890.705" gradientUnits="userSpaceOnUse">
<stop offset="0.01" stop-color="#7A92E8"/>
<stop offset="1" stop-color="#4949B3"/>
</linearGradient>
<linearGradient id="paint41_linear_73_45" x1="208.71" y1="739.893" x2="208.71" y2="616.17" gradientUnits="userSpaceOnUse">
<stop offset="0.01" stop-color="#7A92E8"/>
<stop offset="1" stop-color="#4949B3"/>
</linearGradient>
<linearGradient id="paint42_linear_73_45" x1="675.139" y1="541.229" x2="675.139" y2="843.67" gradientUnits="userSpaceOnUse">
<stop offset="0.01" stop-color="#7A92E8"/>
<stop offset="1" stop-color="#4949B3"/>
</linearGradient>
<linearGradient id="paint43_linear_73_45" x1="630.958" y1="831.895" x2="630.958" y2="535.333" gradientUnits="userSpaceOnUse">
<stop offset="0.01" stop-color="#7A92E8"/>
<stop offset="1" stop-color="#4949B3"/>
</linearGradient>
<linearGradient id="paint44_linear_73_45" x1="431.127" y1="517.839" x2="431.127" y2="550.744" gradientUnits="userSpaceOnUse">
<stop offset="0.01" stop-color="#6EB4C9"/>
<stop offset="0.15" stop-color="#6FB5C9" stop-opacity="0.98"/>
<stop offset="0.29" stop-color="#72B8CA" stop-opacity="0.92"/>
<stop offset="0.43" stop-color="#76BCCA" stop-opacity="0.82"/>
<stop offset="0.57" stop-color="#7DC3CB" stop-opacity="0.68"/>
<stop offset="0.71" stop-color="#86CBCD" stop-opacity="0.5"/>
<stop offset="0.85" stop-color="#90D5CE" stop-opacity="0.28"/>
<stop offset="0.99" stop-color="#9CE1D0" stop-opacity="0.02"/>
<stop offset="1" stop-color="#9DE2D0" stop-opacity="0"/>
</linearGradient>
<linearGradient id="paint45_linear_73_45" x1="606.495" y1="114.728" x2="606.495" y2="147.633" gradientUnits="userSpaceOnUse">
<stop offset="0.01" stop-color="#6EB4C9"/>
<stop offset="0.15" stop-color="#6FB5C9" stop-opacity="0.98"/>
<stop offset="0.29" stop-color="#72B8CA" stop-opacity="0.92"/>
<stop offset="0.43" stop-color="#76BCCA" stop-opacity="0.82"/>
<stop offset="0.57" stop-color="#7DC3CB" stop-opacity="0.68"/>
<stop offset="0.71" stop-color="#86CBCD" stop-opacity="0.5"/>
<stop offset="0.85" stop-color="#90D5CE" stop-opacity="0.28"/>
<stop offset="0.99" stop-color="#9CE1D0" stop-opacity="0.02"/>
<stop offset="1" stop-color="#9DE2D0" stop-opacity="0"/>
</linearGradient>
<linearGradient id="paint46_linear_73_45" x1="408.027" y1="751.027" x2="408.027" y2="813.024" gradientUnits="userSpaceOnUse">
<stop offset="0.01" stop-color="#6EB4C9"/>
<stop offset="0.15" stop-color="#6FB5C9" stop-opacity="0.98"/>
<stop offset="0.29" stop-color="#72B8CA" stop-opacity="0.92"/>
<stop offset="0.43" stop-color="#76BCCA" stop-opacity="0.82"/>
<stop offset="0.57" stop-color="#7DC3CB" stop-opacity="0.68"/>
<stop offset="0.71" stop-color="#86CBCD" stop-opacity="0.5"/>
<stop offset="0.85" stop-color="#90D5CE" stop-opacity="0.28"/>
<stop offset="0.99" stop-color="#9CE1D0" stop-opacity="0.02"/>
<stop offset="1" stop-color="#9DE2D0" stop-opacity="0"/>
</linearGradient>
<linearGradient id="paint47_linear_73_45" x1="45.7581" y1="490.06" x2="45.7581" y2="535.221" gradientUnits="userSpaceOnUse">
<stop offset="0.01" stop-color="#6EB4C9"/>
<stop offset="0.15" stop-color="#6FB5C9" stop-opacity="0.98"/>
<stop offset="0.29" stop-color="#72B8CA" stop-opacity="0.92"/>
<stop offset="0.43" stop-color="#76BCCA" stop-opacity="0.82"/>
<stop offset="0.57" stop-color="#7DC3CB" stop-opacity="0.68"/>
<stop offset="0.71" stop-color="#86CBCD" stop-opacity="0.5"/>
<stop offset="0.85" stop-color="#90D5CE" stop-opacity="0.28"/>
<stop offset="0.99" stop-color="#9CE1D0" stop-opacity="0.02"/>
<stop offset="1" stop-color="#9DE2D0" stop-opacity="0"/>
</linearGradient>
<linearGradient id="paint48_linear_73_45" x1="618.366" y1="283.899" x2="618.366" y2="398.763" gradientUnits="userSpaceOnUse">
<stop offset="0.01" stop-color="#6EB4C9"/>
<stop offset="0.15" stop-color="#6FB5C9" stop-opacity="0.98"/>
<stop offset="0.29" stop-color="#72B8CA" stop-opacity="0.92"/>
<stop offset="0.43" stop-color="#76BCCA" stop-opacity="0.82"/>
<stop offset="0.57" stop-color="#7DC3CB" stop-opacity="0.68"/>
<stop offset="0.71" stop-color="#86CBCD" stop-opacity="0.5"/>
<stop offset="0.85" stop-color="#90D5CE" stop-opacity="0.28"/>
<stop offset="0.99" stop-color="#9CE1D0" stop-opacity="0.02"/>
<stop offset="1" stop-color="#9DE2D0" stop-opacity="0"/>
</linearGradient>
<linearGradient id="paint49_linear_73_45" x1="-5.95393" y1="236.048" x2="-5.95393" y2="296.155" gradientUnits="userSpaceOnUse">
<stop offset="0.01" stop-color="#6EB4C9"/>
<stop offset="0.15" stop-color="#6FB5C9" stop-opacity="0.98"/>
<stop offset="0.29" stop-color="#72B8CA" stop-opacity="0.92"/>
<stop offset="0.43" stop-color="#76BCCA" stop-opacity="0.82"/>
<stop offset="0.57" stop-color="#7DC3CB" stop-opacity="0.68"/>
<stop offset="0.71" stop-color="#86CBCD" stop-opacity="0.5"/>
<stop offset="0.85" stop-color="#90D5CE" stop-opacity="0.28"/>
<stop offset="0.99" stop-color="#9CE1D0" stop-opacity="0.02"/>
<stop offset="1" stop-color="#9DE2D0" stop-opacity="0"/>
</linearGradient>
<linearGradient id="paint50_linear_73_45" x1="-50.985" y1="591.468" x2="-50.985" y2="721.903" gradientUnits="userSpaceOnUse">
<stop offset="0.01" stop-color="#6EB4C9"/>
<stop offset="0.15" stop-color="#6FB5C9" stop-opacity="0.98"/>
<stop offset="0.29" stop-color="#72B8CA" stop-opacity="0.92"/>
<stop offset="0.43" stop-color="#76BCCA" stop-opacity="0.82"/>
<stop offset="0.57" stop-color="#7DC3CB" stop-opacity="0.68"/>
<stop offset="0.71" stop-color="#86CBCD" stop-opacity="0.5"/>
<stop offset="0.85" stop-color="#90D5CE" stop-opacity="0.28"/>
<stop offset="0.99" stop-color="#9CE1D0" stop-opacity="0.02"/>
<stop offset="1" stop-color="#9DE2D0" stop-opacity="0"/>
</linearGradient>
<linearGradient id="paint51_linear_73_45" x1="659.087" y1="212.322" x2="659.087" y2="299.663" gradientUnits="userSpaceOnUse">
<stop offset="0.01" stop-color="#6EB4C9"/>
<stop offset="0.15" stop-color="#6FB5C9" stop-opacity="0.98"/>
<stop offset="0.29" stop-color="#72B8CA" stop-opacity="0.92"/>
<stop offset="0.43" stop-color="#76BCCA" stop-opacity="0.82"/>
<stop offset="0.57" stop-color="#7DC3CB" stop-opacity="0.68"/>
<stop offset="0.71" stop-color="#86CBCD" stop-opacity="0.5"/>
<stop offset="0.85" stop-color="#90D5CE" stop-opacity="0.28"/>
<stop offset="0.99" stop-color="#9CE1D0" stop-opacity="0.02"/>
<stop offset="1" stop-color="#9DE2D0" stop-opacity="0"/>
</linearGradient>
<clipPath id="clip0_73_45">
<rect width="700" height="800" fill="white"/>
</clipPath>
</defs>
</svg>
