<svg width="20" height="20" viewBox="0 0 20 20" fill="none" xmlns="http://www.w3.org/2000/svg">
<path d="M4.99968 18.3333C4.54134 18.3333 4.14884 18.17 3.82218 17.8433C3.49551 17.5167 3.33245 17.1245 3.33301 16.6667V8.33334C3.33301 7.87501 3.49634 7.48251 3.82301 7.15584C4.14968 6.82918 4.5419 6.66612 4.99968 6.66668H5.83301V5.00001C5.83301 3.84723 6.2394 2.86446 7.05218 2.05168C7.86495 1.2389 8.84745 0.832789 9.99968 0.833344C11.1525 0.833344 12.1352 1.23973 12.948 2.05251C13.7608 2.86529 14.1669 3.84779 14.1663 5.00001V6.66668H14.9997C15.458 6.66668 15.8505 6.83001 16.1772 7.15668C16.5038 7.48334 16.6669 7.87557 16.6663 8.33334V16.6667C16.6663 17.125 16.503 17.5175 16.1763 17.8442C15.8497 18.1708 15.4575 18.3339 14.9997 18.3333H4.99968ZM4.58301 17.0833H15.4163V7.91668H4.58301V17.0833ZM9.99968 14.1667C10.458 14.1667 10.8505 14.0033 11.1772 13.6767C11.5038 13.35 11.6669 12.9578 11.6663 12.5C11.6663 12.0417 11.503 11.6492 11.1763 11.3225C10.8497 10.9958 10.4575 10.8328 9.99968 10.8333C9.54134 10.8333 9.14884 10.9967 8.82218 11.3233C8.49551 11.65 8.33245 12.0422 8.33301 12.5C8.33301 12.9583 8.49634 13.3508 8.82301 13.6775C9.14968 14.0042 9.5419 14.1672 9.99968 14.1667ZM7.08301 6.66668L12.9163 6.66668V5.00001C12.9163 4.30557 12.5691 3.40279 12.083 2.91668C11.5969 2.43057 10.9448 2.08334 9.99967 2.08334C9.16634 2.08334 8.40245 2.43057 7.91634 2.91668C7.43023 3.40279 7.08301 4.30557 7.08301 5.00001V6.66668Z" fill="#9397BB"/>
</svg>
