<svg width="260" height="31" viewBox="0 0 260 31" fill="none" xmlns="http://www.w3.org/2000/svg">
<path d="M55.0165 13.3678C55.6801 12.0479 56.2885 10.8295 56.9521 9.56034C58.1687 7.22509 59.3301 4.83907 60.5467 2.50382C60.6573 2.30076 60.9338 2.09769 61.2103 2.09769C64.5837 2.04693 67.9019 2.09769 71.2753 2.09769C71.3306 2.09769 71.4412 2.09769 71.6071 2.14846C71.22 2.80842 70.8882 3.41762 70.5563 4.02681L55.7907 29.613C55.6248 29.9176 55.5142 30.2222 55.0165 30.2222C54.5188 30.2222 54.4082 29.9176 54.2423 29.613C49.0992 20.6782 43.9562 11.7433 38.7578 2.80842C38.6472 2.60536 38.5366 2.40229 38.426 2.14846C38.6472 2.14846 38.8684 2.09769 39.0343 2.09769C42.2418 2.09769 45.4493 2.09769 48.6568 2.09769C49.0439 2.04693 49.431 2.30076 49.5416 2.65612C51.3113 6.20976 53.1363 9.7634 55.0165 13.3678ZM0.433594 2.14846H10.4432V22.9119H23.1074V29.1561H0.433594V2.14846ZM258.085 11.1849H254.269C254.214 10.8295 254.158 10.4741 254.103 10.1188C253.661 8.54501 252.499 7.27586 250.896 6.61589C248.407 5.44827 245.753 5.0929 243.043 5.14367C239.835 5.19444 236.683 5.60057 233.918 7.12356C233.088 7.58045 232.314 8.18965 231.761 8.95114C230.545 10.5757 231.153 12.454 233.033 13.3678C234.25 13.977 235.632 14.3324 237.07 14.3831C241.052 14.4847 245.089 14.4847 249.071 14.5354C251.062 14.5354 253.052 14.8908 254.933 15.6015C260.076 17.6322 259.91 23.2165 257.089 25.8056C255.32 27.4301 253.108 28.2423 250.785 28.8008C247.412 29.5623 243.872 29.7653 240.388 29.4607C237.513 29.3084 234.692 28.6485 232.093 27.4808C229.826 26.4147 228.056 24.8918 227.448 22.5565C227.282 21.9473 227.226 21.2873 227.171 20.6274H231.153C231.595 23.7749 234.139 24.9933 236.904 25.8563C241.55 27.227 246.582 27.0747 251.062 25.4502C252.278 25.0948 253.329 24.3841 254.103 23.4703C255.762 21.4904 255.099 19.1044 252.555 18.1398C251.006 17.5814 249.292 17.3276 247.633 17.3783C244.038 17.3276 240.444 17.3783 236.849 17.3276C234.692 17.2768 232.535 16.8199 230.655 15.9061C226.176 13.7739 226.231 8.95114 229.439 6.26053C231.651 4.43294 234.305 3.51915 237.126 2.96072C241.771 1.99616 246.582 2.14846 251.062 3.51915C253.44 4.22988 255.486 5.3975 256.924 7.32662C257.753 8.39271 258.14 9.7634 258.085 11.1849ZM131.499 13.977H151.684V16.8707H131.499V26.4147H154.505V29.4607H127.794V28.8008C127.794 20.1705 127.794 11.5402 127.794 2.90996C127.794 2.35153 127.904 2.14846 128.568 2.14846C136.974 2.14846 145.435 2.14846 153.841 2.14846H154.505V5.34674H131.499V13.977ZM197.695 29.5623V2.30076H209.806C216.885 2.30076 222.968 7.02202 224.185 13.4186C225.457 20.8305 220.646 27.3285 213.401 29.0546C212.295 29.3084 211.134 29.4607 210.028 29.4607C206.156 29.5115 202.285 29.4607 198.414 29.4607L197.695 29.5623ZM201.401 26.2624C203.613 26.2624 205.714 26.2624 207.871 26.2624C208.866 26.2624 209.806 26.2624 210.802 26.1101C217.217 25.1456 221.254 20.1197 220.48 14.1801C219.705 8.69731 214.894 6.05747 210.581 5.7021C207.594 5.49904 204.553 5.60057 201.566 5.5498C201.511 5.5498 201.511 5.60057 201.456 5.60057L201.401 26.2624ZM35.6609 29.1561H25.6512V2.14846H35.6609V29.1561ZM84.603 29.1561H74.5934V2.14846H84.603V29.1561ZM174.634 7.88505L170.376 14.84C167.5 19.5613 164.625 24.2826 161.749 29.0038C161.583 29.3592 161.196 29.5623 160.754 29.5115C159.592 29.4607 158.376 29.5115 157.048 29.5115L174.69 0.777771C180.552 10.3726 186.414 19.9167 192.331 29.5115C190.893 29.5115 189.566 29.5115 188.239 29.5115C188.073 29.5115 187.852 29.2577 187.741 29.0546C184.865 24.3841 182.045 19.7644 179.169 15.0939C177.842 12.9109 176.515 10.728 175.187 8.54501C174.966 8.34195 174.856 8.13888 174.634 7.88505ZM123.757 26.4147V29.5115H97.6542V2.35153H101.304V26.4147H123.757ZM177.068 27.3285C177.123 28.4962 176.072 29.5115 174.8 29.5115C174.745 29.5115 174.69 29.5115 174.634 29.5115C173.307 29.5115 172.201 28.5469 172.201 27.3285C172.201 26.0594 173.307 25.0441 174.634 25.0441C175.962 25.0441 177.068 26.0086 177.068 27.227C177.068 27.2778 177.068 27.3285 177.068 27.3285Z" fill="#6560F0"/>
</svg>
